<svg xmlns="http://www.w3.org/2000/svg" viewBox="0 0 680 280" font-family="'Segoe UI',system-ui,-apple-system,sans-serif">
  <defs>
    <marker id="ar2" viewBox="0 0 10 10" refX="8" refY="5" markerWidth="6" markerHeight="6" orient="auto-start-reverse">
      <path d="M2 1L8 5L2 9" fill="none" stroke="#8a7fb0" stroke-width="1.5" stroke-linecap="round" stroke-linejoin="round"/>
    </marker>
  </defs>
  <rect x="0" y="0" width="680" height="280" rx="14" fill="#12101a"/>

  <rect x="270" y="36" width="140" height="52" rx="8" fill="#2a2410" stroke="#e0b020" stroke-width="1.5"/>
  <text x="340" y="68" text-anchor="middle" fill="#f5e3a8" font-size="16" font-weight="600">TreeDef</text>

  <line x1="340" y1="88" x2="95"  y2="166" stroke="#8a7fb0" stroke-width="1.5" marker-end="url(#ar2)"/>
  <line x1="340" y1="88" x2="245" y2="166" stroke="#8a7fb0" stroke-width="1.5" marker-end="url(#ar2)"/>
  <line x1="340" y1="88" x2="435" y2="166" stroke="#8a7fb0" stroke-width="1.5" marker-end="url(#ar2)"/>
  <line x1="340" y1="88" x2="585" y2="166" stroke="#8a7fb0" stroke-width="1.5" marker-end="url(#ar2)"/>

  <rect x="30" y="170" width="130" height="66" rx="8" fill="#1d1b28" stroke="#b8a878" stroke-width="1.2"/>
  <text x="95" y="200" text-anchor="middle" fill="#ece2c4" font-size="15" font-weight="600">resources</text>
  <text x="95" y="219" text-anchor="middle" fill="#a39d86" font-size="12">3 pools</text>

  <rect x="180" y="170" width="130" height="66" rx="8" fill="#1d1b28" stroke="#b8a878" stroke-width="1.2"/>
  <text x="245" y="200" text-anchor="middle" fill="#ece2c4" font-size="15" font-weight="600">stats</text>
  <text x="245" y="219" text-anchor="middle" fill="#a39d86" font-size="12">faith</text>

  <rect x="330" y="170" width="130" height="66" rx="8" fill="#1d1b28" stroke="#b8a878" stroke-width="1.2"/>
  <text x="395" y="200" text-anchor="middle" fill="#ece2c4" font-size="15" font-weight="600">nodes</text>
  <text x="395" y="219" text-anchor="middle" fill="#a39d86" font-size="12">13 skills</text>

  <rect x="480" y="170" width="130" height="66" rx="8" fill="#1d1b28" stroke="#b8a878" stroke-width="1.2"/>
  <text x="545" y="200" text-anchor="middle" fill="#ece2c4" font-size="15" font-weight="600">edges</text>
  <text x="545" y="219" text-anchor="middle" fill="#a39d86" font-size="12">16 links</text>
</svg>
